<?xml version="1.0" standalone="no"?>
<!DOCTYPE svg PUBLIC "-//W3C//DTD SVG 20010904//EN"
 "http://www.w3.org/TR/2001/REC-SVG-20010904/DTD/svg10.dtd">
<svg version="1.0" xmlns="http://www.w3.org/2000/svg"
 width="16.000000pt" height="16.000000pt" viewBox="0 0 16.000000 16.000000"
 preserveAspectRatio="xMidYMid meet">
<metadata>
Created by potrace 1.11, written by Peter Selinger 2001-2013
</metadata>
<g transform="translate(0.000000,16.000000) scale(0.000930,-0.000930)"
fill="#000000" stroke="none">
<path d="M7135 12485 c-858 -430 -1598 -802 -1645 -826 -47 -23 -87 -43 -90
-44 -6 -1 -919 -458 -952 -477 -13 -7 -25 -13 -28 -13 -3 -1 -152 -75 -332
-165 l-327 -164 0 -2476 -1 -2475 42 -22 c24 -12 259 -130 524 -261 264 -132
490 -245 502 -251 12 -6 30 -15 40 -19 9 -5 63 -32 120 -60 56 -29 148 -75
205 -104 56 -28 109 -55 117 -59 8 -5 152 -76 320 -160 168 -84 928 -464 1689
-845 l1384 -694 2474 1237 2473 1238 0 2475 0 2475 -212 106 c-117 58 -1230
615 -2473 1237 -1243 623 -2262 1131 -2265 1131 -3 -1 -707 -354 -1565 -784z"/>
</g>
</svg>
