<?xml version="1.0" standalone="no"?>
<!DOCTYPE svg PUBLIC "-//W3C//DTD SVG 20010904//EN"
 "http://www.w3.org/TR/2001/REC-SVG-20010904/DTD/svg10.dtd">
<svg version="1.0" xmlns="http://www.w3.org/2000/svg"
 width="16.000000pt" height="16.000000pt" viewBox="0 0 16.000000 16.000000"
 preserveAspectRatio="xMidYMid meet">
<metadata>
Created by potrace 1.11, written by Peter Selinger 2001-2013
</metadata>
<g transform="translate(0.000000,16.000000) scale(0.002703,-0.002703)"
fill="#000000" stroke="none">
<path d="M1495 5187 l-1460 -732 -3 -1467 -2 -1466 1107 -554 c610 -305 1119
-561 1133 -568 14 -8 27 -15 30 -15 6 -1 336 -166 370 -185 14 -8 27 -15 30
-15 3 0 60 -28 128 -63 67 -34 127 -62 134 -62 6 0 669 329 1472 730 l1461
731 0 1465 0 1466 -1465 734 c-806 403 -1467 733 -1470 733 -3 0 -662 -330
-1465 -732z"/>
</g>
</svg>
